<mxfile host="app.diagrams.net" modified="2020-12-11T03:20:26.625Z" agent="5.0 (Windows)" etag="7rmM0iRzIcp_zv96cZVB" version="13.10.6" type="github">
  <diagram id="AmF95eOuUOl-odB8TZgS" name="Base">
    <mxGraphModel dx="1642" dy="1024" grid="1" gridSize="10" guides="1" tooltips="1" connect="1" arrows="1" fold="1" page="1" pageScale="1" pageWidth="1169" pageHeight="827" math="0" shadow="0">
      <root>
        <mxCell id="BsyN5uTjvxiYQo5_l33H-0" />
        <mxCell id="BsyN5uTjvxiYQo5_l33H-1" parent="BsyN5uTjvxiYQo5_l33H-0" />
        <mxCell id="Jlk9EAa8DoOELK4E6xyT-6" value="" style="rounded=0;whiteSpace=wrap;html=1;" vertex="1" parent="BsyN5uTjvxiYQo5_l33H-1">
          <mxGeometry x="110" y="-90" width="590" height="580" as="geometry" />
        </mxCell>
        <mxCell id="pBJmVVVJRQS4sJVsDnPl-22" style="edgeStyle=none;rounded=0;orthogonalLoop=1;jettySize=auto;html=1;exitX=0.5;exitY=0.5;exitDx=0;exitDy=0;exitPerimeter=0;endArrow=none;endFill=0;" parent="BsyN5uTjvxiYQo5_l33H-1" source="pBJmVVVJRQS4sJVsDnPl-0" target="pBJmVVVJRQS4sJVsDnPl-20" edge="1">
          <mxGeometry relative="1" as="geometry" />
        </mxCell>
        <mxCell id="pBJmVVVJRQS4sJVsDnPl-0" value="&lt;div&gt;Responsável&lt;/div&gt;&lt;div&gt;do Processo Seletivo&lt;br&gt;&lt;/div&gt;" style="shape=umlActor;verticalLabelPosition=bottom;verticalAlign=top;html=1;outlineConnect=0;" parent="BsyN5uTjvxiYQo5_l33H-1" vertex="1">
          <mxGeometry x="30" y="10" width="30" height="60" as="geometry" />
        </mxCell>
        <mxCell id="pBJmVVVJRQS4sJVsDnPl-1" value="Cadastro da data de prova" style="ellipse;whiteSpace=wrap;html=1;" parent="BsyN5uTjvxiYQo5_l33H-1" vertex="1">
          <mxGeometry x="167" y="-30" width="90" height="60" as="geometry" />
        </mxCell>
        <mxCell id="pBJmVVVJRQS4sJVsDnPl-2" value="Cadastro de cursos oferecidos" style="ellipse;whiteSpace=wrap;html=1;" parent="BsyN5uTjvxiYQo5_l33H-1" vertex="1">
          <mxGeometry x="167" y="50" width="90" height="60" as="geometry" />
        </mxCell>
        <mxCell id="pBJmVVVJRQS4sJVsDnPl-3" value="&lt;div&gt;Equipe de digitadores&lt;/div&gt;" style="shape=umlActor;verticalLabelPosition=bottom;verticalAlign=top;html=1;outlineConnect=0;" parent="BsyN5uTjvxiYQo5_l33H-1" vertex="1">
          <mxGeometry x="30" y="230" width="30" height="60" as="geometry" />
        </mxCell>
        <mxCell id="pBJmVVVJRQS4sJVsDnPl-4" value="Cadastro de fichas de inscrições" style="ellipse;whiteSpace=wrap;html=1;" parent="BsyN5uTjvxiYQo5_l33H-1" vertex="1">
          <mxGeometry x="160" y="200" width="92" height="60" as="geometry" />
        </mxCell>
        <mxCell id="pBJmVVVJRQS4sJVsDnPl-6" value="" style="endArrow=none;html=1;exitX=0.75;exitY=0.1;exitDx=0;exitDy=0;exitPerimeter=0;entryX=0;entryY=0.5;entryDx=0;entryDy=0;" parent="BsyN5uTjvxiYQo5_l33H-1" source="pBJmVVVJRQS4sJVsDnPl-0" target="pBJmVVVJRQS4sJVsDnPl-1" edge="1">
          <mxGeometry width="50" height="50" relative="1" as="geometry">
            <mxPoint x="247" y="170" as="sourcePoint" />
            <mxPoint x="297" y="120" as="targetPoint" />
          </mxGeometry>
        </mxCell>
        <mxCell id="pBJmVVVJRQS4sJVsDnPl-7" value="" style="endArrow=none;html=1;exitX=1;exitY=0.3333333333333333;exitDx=0;exitDy=0;exitPerimeter=0;entryX=0;entryY=0.5;entryDx=0;entryDy=0;" parent="BsyN5uTjvxiYQo5_l33H-1" source="pBJmVVVJRQS4sJVsDnPl-0" target="pBJmVVVJRQS4sJVsDnPl-2" edge="1">
          <mxGeometry width="50" height="50" relative="1" as="geometry">
            <mxPoint x="247" y="170" as="sourcePoint" />
            <mxPoint x="297" y="120" as="targetPoint" />
          </mxGeometry>
        </mxCell>
        <mxCell id="pBJmVVVJRQS4sJVsDnPl-8" value="" style="endArrow=none;html=1;exitX=1;exitY=0.3333333333333333;exitDx=0;exitDy=0;exitPerimeter=0;entryX=0;entryY=0.5;entryDx=0;entryDy=0;" parent="BsyN5uTjvxiYQo5_l33H-1" source="pBJmVVVJRQS4sJVsDnPl-3" target="pBJmVVVJRQS4sJVsDnPl-4" edge="1">
          <mxGeometry width="50" height="50" relative="1" as="geometry">
            <mxPoint x="247" y="230" as="sourcePoint" />
            <mxPoint x="297" y="180" as="targetPoint" />
          </mxGeometry>
        </mxCell>
        <mxCell id="pBJmVVVJRQS4sJVsDnPl-14" style="rounded=0;orthogonalLoop=1;jettySize=auto;html=1;exitX=1;exitY=0.5;exitDx=0;exitDy=0;entryX=0;entryY=0.5;entryDx=0;entryDy=0;endArrow=none;endFill=0;" parent="BsyN5uTjvxiYQo5_l33H-1" source="pBJmVVVJRQS4sJVsDnPl-9" target="pBJmVVVJRQS4sJVsDnPl-13" edge="1">
          <mxGeometry relative="1" as="geometry" />
        </mxCell>
        <mxCell id="pBJmVVVJRQS4sJVsDnPl-9" value="Imprime os erros da inscrição" style="ellipse;whiteSpace=wrap;html=1;" parent="BsyN5uTjvxiYQo5_l33H-1" vertex="1">
          <mxGeometry x="162" y="280" width="90" height="60" as="geometry" />
        </mxCell>
        <mxCell id="pBJmVVVJRQS4sJVsDnPl-11" value="" style="endArrow=none;html=1;exitX=1;exitY=0.3333333333333333;exitDx=0;exitDy=0;exitPerimeter=0;entryX=0;entryY=0.5;entryDx=0;entryDy=0;" parent="BsyN5uTjvxiYQo5_l33H-1" source="pBJmVVVJRQS4sJVsDnPl-3" target="pBJmVVVJRQS4sJVsDnPl-9" edge="1">
          <mxGeometry width="50" height="50" relative="1" as="geometry">
            <mxPoint x="247" y="230" as="sourcePoint" />
            <mxPoint x="297" y="180" as="targetPoint" />
          </mxGeometry>
        </mxCell>
        <mxCell id="pBJmVVVJRQS4sJVsDnPl-24" style="edgeStyle=none;rounded=0;orthogonalLoop=1;jettySize=auto;html=1;exitX=0;exitY=1;exitDx=0;exitDy=0;exitPerimeter=0;entryX=1;entryY=0.5;entryDx=0;entryDy=0;endArrow=none;endFill=0;" parent="BsyN5uTjvxiYQo5_l33H-1" source="pBJmVVVJRQS4sJVsDnPl-12" target="pBJmVVVJRQS4sJVsDnPl-23" edge="1">
          <mxGeometry relative="1" as="geometry">
            <mxPoint x="599.4264068711927" y="290.001262658471" as="targetPoint" />
          </mxGeometry>
        </mxCell>
        <mxCell id="pBJmVVVJRQS4sJVsDnPl-12" value="&lt;div&gt;CPD&lt;/div&gt;" style="shape=umlActor;verticalLabelPosition=bottom;verticalAlign=top;html=1;outlineConnect=0;" parent="BsyN5uTjvxiYQo5_l33H-1" vertex="1">
          <mxGeometry x="727" y="159.75" width="30" height="60" as="geometry" />
        </mxCell>
        <mxCell id="pBJmVVVJRQS4sJVsDnPl-13" value="Realiza uma conferencia dos dados" style="ellipse;whiteSpace=wrap;html=1;" parent="BsyN5uTjvxiYQo5_l33H-1" vertex="1">
          <mxGeometry x="320" y="280" width="90" height="60" as="geometry" />
        </mxCell>
        <mxCell id="Jlk9EAa8DoOELK4E6xyT-0" style="edgeStyle=none;rounded=0;orthogonalLoop=1;jettySize=auto;html=1;exitX=0;exitY=0.5;exitDx=0;exitDy=0;entryX=1;entryY=0.5;entryDx=0;entryDy=0;endArrow=none;endFill=0;" edge="1" parent="BsyN5uTjvxiYQo5_l33H-1" source="pBJmVVVJRQS4sJVsDnPl-16" target="pBJmVVVJRQS4sJVsDnPl-29">
          <mxGeometry relative="1" as="geometry" />
        </mxCell>
        <mxCell id="Jlk9EAa8DoOELK4E6xyT-4" value="&lt;div&gt;&amp;lt;&amp;lt;include&amp;gt;&amp;gt;&lt;/div&gt;" style="edgeLabel;html=1;align=center;verticalAlign=middle;resizable=0;points=[];" vertex="1" connectable="0" parent="Jlk9EAa8DoOELK4E6xyT-0">
          <mxGeometry x="-0.4695" y="2" relative="1" as="geometry">
            <mxPoint x="-18.52" y="-14.370000000000001" as="offset" />
          </mxGeometry>
        </mxCell>
        <mxCell id="pBJmVVVJRQS4sJVsDnPl-16" value="Imprime cartão-resposta" style="ellipse;whiteSpace=wrap;html=1;" parent="BsyN5uTjvxiYQo5_l33H-1" vertex="1">
          <mxGeometry x="580" y="159.75" width="90" height="60" as="geometry" />
        </mxCell>
        <mxCell id="pBJmVVVJRQS4sJVsDnPl-17" value="Aloca os candidatos em locais e salas de aula" style="ellipse;whiteSpace=wrap;html=1;" parent="BsyN5uTjvxiYQo5_l33H-1" vertex="1">
          <mxGeometry x="497" y="50" width="110" height="80" as="geometry" />
        </mxCell>
        <mxCell id="pBJmVVVJRQS4sJVsDnPl-18" value="" style="endArrow=none;html=1;entryX=1;entryY=0.5;entryDx=0;entryDy=0;exitX=0;exitY=0.3333333333333333;exitDx=0;exitDy=0;exitPerimeter=0;" parent="BsyN5uTjvxiYQo5_l33H-1" source="pBJmVVVJRQS4sJVsDnPl-12" target="pBJmVVVJRQS4sJVsDnPl-17" edge="1">
          <mxGeometry width="50" height="50" relative="1" as="geometry">
            <mxPoint x="437" y="239.75" as="sourcePoint" />
            <mxPoint x="607" y="129.75" as="targetPoint" />
          </mxGeometry>
        </mxCell>
        <mxCell id="pBJmVVVJRQS4sJVsDnPl-19" value="" style="endArrow=none;html=1;exitX=1;exitY=0.5;exitDx=0;exitDy=0;entryX=0.5;entryY=0.5;entryDx=0;entryDy=0;entryPerimeter=0;" parent="BsyN5uTjvxiYQo5_l33H-1" source="pBJmVVVJRQS4sJVsDnPl-16" target="pBJmVVVJRQS4sJVsDnPl-12" edge="1">
          <mxGeometry width="50" height="50" relative="1" as="geometry">
            <mxPoint x="597" y="219.75" as="sourcePoint" />
            <mxPoint x="487" y="189.75" as="targetPoint" />
          </mxGeometry>
        </mxCell>
        <mxCell id="pBJmVVVJRQS4sJVsDnPl-26" style="edgeStyle=none;rounded=0;orthogonalLoop=1;jettySize=auto;html=1;exitX=1;exitY=0.5;exitDx=0;exitDy=0;entryX=0;entryY=0.5;entryDx=0;entryDy=0;endArrow=none;endFill=0;" parent="BsyN5uTjvxiYQo5_l33H-1" source="pBJmVVVJRQS4sJVsDnPl-20" target="pBJmVVVJRQS4sJVsDnPl-25" edge="1">
          <mxGeometry relative="1" as="geometry" />
        </mxCell>
        <mxCell id="pBJmVVVJRQS4sJVsDnPl-27" value="&lt;div&gt;&amp;lt;&amp;lt;include&amp;gt;&amp;gt;&lt;/div&gt;" style="edgeLabel;html=1;align=center;verticalAlign=middle;resizable=0;points=[];" parent="pBJmVVVJRQS4sJVsDnPl-26" vertex="1" connectable="0">
          <mxGeometry x="-0.25" y="-1" relative="1" as="geometry">
            <mxPoint x="9.19" y="-11" as="offset" />
          </mxGeometry>
        </mxCell>
        <mxCell id="pBJmVVVJRQS4sJVsDnPl-20" value="Recebimento do gabarito" style="ellipse;whiteSpace=wrap;html=1;" parent="BsyN5uTjvxiYQo5_l33H-1" vertex="1">
          <mxGeometry x="162" y="120" width="95" height="60" as="geometry" />
        </mxCell>
        <mxCell id="pBJmVVVJRQS4sJVsDnPl-23" value="&lt;div&gt;Gera classificação do Processo Seletivo&lt;/div&gt;" style="ellipse;whiteSpace=wrap;html=1;" parent="BsyN5uTjvxiYQo5_l33H-1" vertex="1">
          <mxGeometry x="492" y="240" width="120" height="70" as="geometry" />
        </mxCell>
        <mxCell id="pBJmVVVJRQS4sJVsDnPl-25" value="Gabarito que deve ser lançado no sistema" style="ellipse;whiteSpace=wrap;html=1;" parent="BsyN5uTjvxiYQo5_l33H-1" vertex="1">
          <mxGeometry x="320" y="120" width="95" height="60" as="geometry" />
        </mxCell>
        <mxCell id="pBJmVVVJRQS4sJVsDnPl-29" value="&lt;div&gt;Leitura do cartão-resposta&lt;/div&gt;" style="ellipse;whiteSpace=wrap;html=1;" parent="BsyN5uTjvxiYQo5_l33H-1" vertex="1">
          <mxGeometry x="420" y="159.75" width="90" height="60" as="geometry" />
        </mxCell>
        <mxCell id="Jlk9EAa8DoOELK4E6xyT-5" value="&amp;lt;&amp;lt;include&amp;gt;&amp;gt;" style="text;html=1;align=center;verticalAlign=middle;resizable=0;points=[];autosize=1;" vertex="1" parent="BsyN5uTjvxiYQo5_l33H-1">
          <mxGeometry x="240" y="290" width="80" height="20" as="geometry" />
        </mxCell>
        <mxCell id="Jlk9EAa8DoOELK4E6xyT-7" value="Vestibular" style="text;html=1;strokeColor=none;fillColor=none;align=center;verticalAlign=middle;whiteSpace=wrap;rounded=0;" vertex="1" parent="BsyN5uTjvxiYQo5_l33H-1">
          <mxGeometry x="380" y="-80" width="40" height="20" as="geometry" />
        </mxCell>
      </root>
    </mxGraphModel>
  </diagram>
</mxfile>
